<?xml version="1.0" encoding="UTF-8" ?>
<!DOCTYPE svg PUBLIC "-//W3C//DTD SVG 1.1//EN" "http://www.w3.org/Graphics/SVG/1.1/DTD/svg11.dtd">
<svg width="231pt" height="331pt" viewBox="0 0 231 331" version="1.1" xmlns="http://www.w3.org/2000/svg">
<g id="#ffffffff">
<path fill="#ffffff" opacity="1.00" d=" M 69.51 274.03 C 69.46 266.41 75.41 260.01 81.94 256.90 C 86.00 255.34 89.61 258.23 91.20 261.79 C 90.43 263.21 89.60 264.62 89.01 266.13 C 87.97 267.96 87.74 264.69 87.52 264.26 C 87.44 261.82 84.56 261.95 82.82 261.62 C 81.02 263.91 80.11 268.31 83.88 269.13 C 84.45 269.09 85.58 269.00 86.15 268.96 L 87.48 267.11 C 88.38 272.01 87.53 277.18 89.33 281.98 C 86.98 283.96 84.31 286.03 81.06 285.88 C 74.77 286.03 69.43 280.18 69.51 274.03 Z" />
<path fill="#ffffff" opacity="1.00" d=" M 91.54 262.54 C 94.39 259.87 98.33 257.95 102.24 259.51 C 111.56 263.16 114.02 277.73 106.17 284.11 C 102.46 287.37 96.44 287.63 92.64 284.40 C 88.48 280.61 88.20 273.85 89.22 268.94 C 91.23 269.50 93.98 270.62 95.18 268.12 C 96.98 265.40 93.93 263.14 91.54 262.54 Z" />
<path fill="#ffffff" opacity="1.00" d=" M 66.10 305.65 C 72.01 305.57 76.89 300.65 82.91 301.44 C 85.28 301.49 87.53 304.77 85.15 306.42 C 82.58 308.00 78.55 306.81 76.76 309.67 C 75.52 313.21 78.57 316.49 78.16 320.03 C 76.88 323.27 72.67 322.30 69.94 322.31 C 66.37 321.58 63.47 325.19 59.95 324.14 C 57.83 321.21 55.79 318.15 54.25 314.87 C 56.91 312.03 60.28 309.72 60.98 305.57 C 62.69 305.58 64.39 305.66 66.10 305.65 Z" />
<path fill="#ffffff" opacity="1.00" d=" M 124.77 304.32 C 130.66 305.61 135.20 312.00 134.77 317.96 C 134.49 322.60 128.98 324.76 125.05 323.21 C 121.60 321.96 119.78 318.36 118.95 315.01 C 118.18 313.55 119.55 312.37 120.36 311.36 C 122.25 309.30 123.55 306.81 124.77 304.32 Z" />
<path fill="#ffffff" opacity="1.00" d=" M 134.18 310.40 C 138.86 313.01 138.89 319.28 134.47 322.35 C 136.49 318.46 135.70 314.22 134.18 310.40 Z" />
</g>
<g id="#cecccdff">
<path fill="#cecccd" opacity="1.00" d=" M 222.64 0.00 L 228.24 0.00 C 228.33 1.36 229.37 3.32 231.00 2.47 L 231.00 8.27 C 228.43 5.31 225.63 2.54 222.64 0.00 Z" />
</g>
<g id="#a3a3a3ff">
<path fill="#a3a3a3" opacity="1.00" d=" M 228.24 0.00 L 231.00 0.00 L 231.00 2.47 C 229.37 3.32 228.33 1.36 228.24 0.00 Z" />
</g>
<g id="#ff0133ff">
<path fill="#ff0133" opacity="1.00" d=" M 62.17 41.14 C 79.27 25.40 102.35 17.97 124.94 14.63 C 140.46 15.32 156.17 18.87 169.85 26.42 C 181.12 32.48 190.46 41.92 196.60 53.13 C 203.17 64.87 205.89 78.27 207.65 91.47 C 208.64 97.83 206.82 104.13 205.13 110.20 C 199.37 129.36 186.24 145.63 170.37 157.51 C 156.93 167.77 141.69 175.41 126.16 181.98 C 115.41 186.86 107.10 196.44 103.65 207.72 C 100.78 215.51 100.77 223.84 100.00 231.99 C 99.48 238.36 93.85 244.95 87.00 243.80 C 80.82 242.56 76.28 236.95 75.05 230.94 C 72.50 219.05 69.87 206.17 74.49 194.43 C 79.32 182.30 89.03 172.90 99.00 164.85 C 106.78 159.26 116.80 158.52 124.87 153.44 C 130.58 150.43 136.63 147.92 141.64 143.75 C 151.88 137.47 160.54 128.32 165.50 117.32 C 169.01 107.99 170.87 97.88 169.25 87.94 C 168.75 80.67 165.54 74.03 162.01 67.79 C 156.36 59.48 147.27 54.09 137.83 51.12 C 125.76 48.05 112.59 49.58 101.54 55.33 C 93.60 59.36 86.14 64.84 81.10 72.29 C 76.65 79.13 73.90 86.90 71.67 94.70 C 69.13 99.00 65.93 103.04 61.97 106.12 C 58.72 108.71 53.93 109.93 50.19 107.64 C 44.95 104.56 41.91 98.96 39.46 93.60 C 37.69 90.31 39.18 86.55 39.62 83.12 C 42.48 67.22 50.12 52.05 62.17 41.14 Z" />
<path fill="#ff0133" opacity="1.00" d=" M 87.58 255.76 C 92.33 256.04 97.08 256.50 101.71 257.61 C 98.23 258.01 94.73 258.68 91.91 260.93 C 90.53 259.15 89.09 257.42 87.58 255.76 Z" />
<path fill="#ff0133" opacity="1.00" d=" M 54.38 282.98 C 56.61 270.22 67.12 259.90 79.47 256.66 C 74.88 260.89 69.17 265.28 68.76 272.07 C 67.60 279.25 73.54 286.94 81.01 286.73 C 84.46 286.98 87.31 284.79 89.78 282.69 C 91.95 285.13 94.70 287.34 98.11 287.52 C 105.57 288.36 111.82 281.08 111.74 273.98 C 112.04 267.12 107.77 260.69 101.59 257.87 C 109.47 259.32 116.94 263.94 121.05 270.92 C 125.82 278.68 126.36 288.20 125.73 297.06 C 124.79 307.68 116.20 315.78 107.05 320.14 C 98.48 324.03 87.84 326.08 79.27 321.08 C 79.19 317.28 77.05 313.62 77.59 309.86 C 80.56 307.78 84.81 308.43 87.51 305.65 C 91.14 304.95 94.33 303.07 97.62 301.49 C 100.88 299.93 104.56 300.02 108.07 300.27 C 108.58 302.11 109.26 303.90 110.28 305.53 C 109.12 301.84 109.09 298.05 110.50 294.43 C 109.60 295.96 108.79 297.56 108.01 299.16 C 104.46 299.31 100.71 299.04 97.44 300.68 C 94.24 302.24 91.12 304.08 87.55 304.67 C 86.54 303.06 85.64 300.93 83.47 300.69 C 76.90 299.36 71.54 305.12 65.05 304.72 C 62.80 304.48 60.60 304.83 59.01 306.58 C 55.15 299.43 52.46 291.13 54.38 282.98 Z" />
<path fill="#ff0133" opacity="1.00" d=" M 126.01 281.20 C 132.12 283.63 137.13 288.94 138.73 295.37 C 140.13 300.67 134.73 305.47 129.84 305.83 C 131.26 302.97 135.68 301.72 135.75 297.92 C 136.62 291.71 131.12 287.37 126.44 284.46 C 126.33 283.64 126.12 282.01 126.01 281.20 Z" />
<path fill="#ff0133" opacity="1.00" d=" M 40.12 301.99 C 42.19 295.89 47.60 291.84 52.94 288.70 C 52.94 289.45 52.94 290.95 52.94 291.71 C 48.81 294.17 44.57 297.28 43.03 302.06 C 41.11 306.88 42.76 312.94 47.18 315.78 C 49.51 317.35 52.47 317.06 55.12 317.50 C 52.20 320.00 47.80 319.22 44.72 317.43 C 39.61 314.36 38.22 307.34 40.12 301.99 Z" />
</g>
<g id="#070304ff">
<path fill="#070304" opacity="1.00" d=" M 102.58 245.43 C 108.53 245.86 113.29 250.27 116.05 255.28 C 113.87 254.05 112.78 251.69 110.95 250.07 C 108.58 247.84 105.32 247.07 102.58 245.43 Z" />
<path fill="#070304" opacity="1.00" d=" M 68.74 256.55 C 71.11 251.53 75.45 246.36 81.36 245.97 C 78.73 247.43 75.74 248.44 73.70 250.75 C 71.90 252.57 70.84 255.03 68.74 256.55 Z" />
<path fill="#070304" opacity="1.00" d=" M 66.06 262.40 C 72.27 257.65 80.07 254.71 87.96 255.08 C 97.39 255.25 107.32 257.03 115.00 262.85 C 120.53 267.02 124.00 273.33 125.70 279.95 C 132.64 282.97 139.08 289.14 139.79 297.01 C 140.10 302.21 134.99 305.07 131.00 307.06 C 133.41 310.21 138.81 311.30 138.72 316.03 C 138.26 321.90 131.65 325.71 126.11 324.39 C 121.14 323.49 118.64 318.39 117.78 313.88 C 109.86 321.30 98.87 325.53 88.00 324.75 C 84.66 324.57 81.48 323.33 78.61 321.64 C 76.05 323.49 72.91 323.45 69.91 323.15 C 66.21 322.54 63.00 326.55 59.35 324.74 C 57.79 323.12 56.95 320.98 55.82 319.07 C 51.75 320.34 46.95 320.33 43.46 317.59 C 38.23 313.79 37.30 306.19 39.72 300.52 C 42.24 294.83 47.42 290.91 52.67 287.88 C 53.39 278.03 58.19 268.46 66.06 262.40 M 87.58 255.76 C 89.09 257.42 90.53 259.15 91.91 260.93 C 94.73 258.68 98.23 258.01 101.71 257.61 C 97.08 256.50 92.33 256.04 87.58 255.76 M 54.38 282.98 C 52.46 291.13 55.15 299.43 59.01 306.58 C 60.60 304.83 62.80 304.48 65.05 304.72 C 71.54 305.12 76.90 299.36 83.47 300.69 C 85.64 300.93 86.54 303.06 87.55 304.67 C 91.12 304.08 94.24 302.24 97.44 300.68 C 100.71 299.04 104.46 299.31 108.01 299.16 C 108.79 297.56 109.60 295.96 110.50 294.43 C 109.09 298.05 109.12 301.84 110.28 305.53 C 109.26 303.90 108.58 302.11 108.07 300.27 C 104.56 300.02 100.88 299.93 97.62 301.49 C 94.33 303.07 91.14 304.95 87.51 305.65 C 84.81 308.43 80.56 307.78 77.59 309.86 C 77.05 313.62 79.19 317.28 79.27 321.08 C 87.84 326.08 98.48 324.03 107.05 320.14 C 116.20 315.78 124.79 307.68 125.73 297.06 C 126.36 288.20 125.82 278.68 121.05 270.92 C 116.94 263.94 109.47 259.32 101.59 257.87 C 107.77 260.69 112.04 267.12 111.74 273.98 C 111.82 281.08 105.57 288.36 98.11 287.52 C 94.70 287.34 91.95 285.13 89.78 282.69 C 87.31 284.79 84.46 286.98 81.01 286.73 C 73.54 286.94 67.60 279.25 68.76 272.07 C 69.17 265.28 74.88 260.89 79.47 256.66 C 67.12 259.90 56.61 270.22 54.38 282.98 M 69.51 274.03 C 69.43 280.18 74.77 286.03 81.06 285.88 C 84.31 286.03 86.98 283.96 89.33 281.98 C 87.53 277.18 88.38 272.01 87.48 267.11 L 86.15 268.96 C 85.58 269.00 84.45 269.09 83.88 269.13 C 80.11 268.31 81.02 263.91 82.82 261.62 C 84.56 261.95 87.44 261.82 87.52 264.26 C 87.74 264.69 87.97 267.96 89.01 266.13 C 89.60 264.62 90.43 263.21 91.20 261.79 C 89.61 258.23 86.00 255.34 81.94 256.90 C 75.41 260.01 69.46 266.41 69.51 274.03 M 91.54 262.54 C 93.93 263.14 96.98 265.40 95.18 268.12 C 93.98 270.62 91.23 269.50 89.22 268.94 C 88.20 273.85 88.48 280.61 92.64 284.40 C 96.44 287.63 102.46 287.37 106.17 284.11 C 114.02 277.73 111.56 263.16 102.24 259.51 C 98.33 257.95 94.39 259.87 91.54 262.54 M 126.01 281.20 C 126.12 282.01 126.33 283.64 126.44 284.46 C 131.12 287.37 136.62 291.71 135.75 297.92 C 135.68 301.72 131.26 302.97 129.84 305.83 C 134.73 305.47 140.13 300.67 138.73 295.37 C 137.13 288.94 132.12 283.63 126.01 281.20 M 126.69 285.61 C 127.01 291.80 127.06 298.12 125.04 304.06 C 129.84 305.08 135.48 301.27 134.94 296.08 C 134.62 291.24 130.37 288.08 126.69 285.61 M 40.12 301.99 C 38.22 307.34 39.61 314.36 44.72 317.43 C 47.80 319.22 52.20 320.00 55.12 317.50 C 52.47 317.06 49.51 317.35 47.18 315.78 C 42.76 312.94 41.11 306.88 43.03 302.06 C 44.57 297.28 48.81 294.17 52.94 291.71 C 52.94 290.95 52.94 289.45 52.94 288.70 C 47.60 291.84 42.19 295.89 40.12 301.99 M 43.19 305.10 C 42.19 310.87 47.00 317.06 53.08 316.45 C 53.48 313.18 56.45 311.72 58.47 309.57 C 59.62 308.58 58.45 307.19 58.01 306.19 C 55.58 301.99 53.97 297.38 53.06 292.62 C 48.38 295.31 43.65 299.32 43.19 305.10 M 66.10 305.65 C 64.39 305.66 62.69 305.58 60.98 305.57 C 60.28 309.72 56.91 312.03 54.25 314.87 C 55.79 318.15 57.83 321.21 59.95 324.14 C 63.47 325.19 66.37 321.58 69.94 322.31 C 72.67 322.30 76.88 323.27 78.16 320.03 C 78.57 316.49 75.52 313.21 76.76 309.67 C 78.55 306.81 82.58 308.00 85.15 306.42 C 87.53 304.77 85.28 301.49 82.91 301.44 C 76.89 300.65 72.01 305.57 66.10 305.65 M 124.77 304.32 C 123.55 306.81 122.25 309.30 120.36 311.36 C 119.55 312.37 118.18 313.55 118.95 315.01 C 119.78 318.36 121.60 321.96 125.05 323.21 C 128.98 324.76 134.49 322.60 134.77 317.96 C 135.20 312.00 130.66 305.61 124.77 304.32 M 134.18 310.40 C 135.70 314.22 136.49 318.46 134.47 322.35 C 138.89 319.28 138.86 313.01 134.18 310.40 Z" />
</g>
</svg>
